<svg xmlns="http://www.w3.org/2000/svg" width="210mm" height="297mm" viewBox="0 0 210 297"><path fill="#0f0" d="M89.43927 56.175461h31.121462v184.64908H89.43927z"/><circle cx="105" cy="56.175461" r="15.560731" fill="#0f0"/><path fill="#0f0" d="M58.317791 124.3341h62.242935v24.165903H58.317791z"/><rect width="63.748802" height="59.733131" x="73.125595" y="232.36296" fill="#ff7f2a" rx="5.5029588" ry="5.9532013"/><rect width="78.308708" height="16.564657" x="65.845642" y="225.26225" fill="#ff7f2a" rx="5.5029588" ry="5.5029588"/><path fill="#0f0" d="M89.43927 157.96536h62.242935v24.165903H89.43927z"/><circle cx="58.317791" cy="136.41707" r="12.082952" fill="#0f0"/><circle cx="151.68221" cy="170.04829" r="12.082952" fill="#0f0"/><path fill="#0f0" d="M46.234833 88.524406h24.165905v47.892635H46.234833zm93.364427 33.631244h24.165905v47.892635H139.59926z"/><circle cx="151.68221" cy="122.15565" r="12.082952" fill="#0f0"/><circle cx="58.317791" cy="88.524406" r="12.082952" fill="#0f0"/><g stroke-linecap="round" transform="rotate(12.85668 329.83428987 -445.0331925) scale(1.37573969)"><path fill="none" stroke="#a40" stroke-linejoin="round" stroke-width="3" d="M148.12497 64.631777a7.2896061 7.2896061 0 0 1-7.04122-5.402918m7.04122 5.402918h26.64828m0 0a7.2896061 7.2896061 0 0 0 7.04122-5.402918"/><rect width="6" height="20.290201" x="149.52315" y="44.306664" fill="#a40" stroke="#a40" stroke-linejoin="round" stroke-width="3" rx="2" ry="2"/><rect width="6" height="20.290201" x="167.37509" y="44.306667" fill="#a40" stroke="#a40" stroke-linejoin="round" stroke-width="3" rx="2" ry="2"/><path fill="none" stroke="#a40" stroke-linejoin="round" stroke-width="3.22371" d="M167.37509 45.787281a6.8427253 5.925972 0 0 1-5.92598 2.962986 6.8427253 5.925972 0 0 1-5.92597-2.962986"/><rect width="16.193598" height="13.09011" x="153.35231" y="49.954166" fill="#a40" stroke="#a40" stroke-linejoin="round" stroke-width="3.89746" ry="1.6521033"/><path fill="#784421" stroke="#784421" stroke-width="1.29756" d="M148.67192 56.782658h25.55439v2.3122203h-25.55439z"/><rect width="8.298069" height="4.7611876" x="157.53041" y="55.733109" fill="none" stroke="#ff0" stroke-width="1.7" rx="1.4913349" ry="1.4913349"/></g></svg>
