<svg xmlns="http://www.w3.org/2000/svg" viewBox="0 0 138.22911 138.22911"><path fill="#10a540" d="M35.302086 19.229103h10v119h-10z"/><path fill="#f0d831" d="m40.302086.00000452 4.99999985 19.22910179-10.00000061-4e-7z"/><path fill="#10a540" d="m40.30208532.00000413 2.27338604 8.74303461-4.54677249-1.8e-7z"/><path fill="#2780da" d="M119.000004 35.302017v10h-119v-10z"/><path fill="#f0d831" d="m138.22911448 40.302023-19.22910179 4.99999985 4e-7-10.00000061z"/><path fill="#2780da" d="m138.22911187 40.30202432-8.74303461 2.27338604 1.8e-7-4.54677249z"/><path fill="#10a540" d="M92.927074 118.999997h10v-119h-10z"/><path fill="#f0d831" d="m97.927112 138.22909748 4.99999985-19.22910179-10.00000061 4e-7z"/><path fill="#10a540" d="m97.92712132 138.22910487 2.27338604-8.74303461-4.54677249 1.8e-7z"/><path fill="#2780da" d="M19.229114 92.927067v10h119v-10z"/><path fill="#f0d831" d="m.00001252 97.927065 19.22910179 4.99999985-4e-7-10.00000061z"/><path fill="#2780da" d="m.00000513 97.92706432 8.74303461 2.27338604-1.8e-7-4.54677249z"/><path fill="#10a540" d="M35.302086 84.959777h10v31.624542h-10z"/></svg>