<svg xmlns="http://www.w3.org/2000/svg" viewBox="0 0 502.70831 502.70833"><defs><clipPath id="a" clipPathUnits="userSpaceOnUse"><path fill="none" stroke="#000" stroke-width=".264583" d="m0 251.35415 251.35417.00002L251.35415 0l-20.4333-124.01308-150.74001-22.45064-361.34841 55.592062 24.5888 228.782718L0 251.35415"/></clipPath><clipPath id="b" clipPathUnits="userSpaceOnUse"><path fill="none" stroke="#000" stroke-width=".264583" d="M-89.560997 470.75677H-340.91516v251.35416l92.88899 186.84706 162.499884-28.86512 78.0426906-97.2861-6.4144786-315.37805-75.662896 3.32803"/></clipPath><clipPath id="c" clipPathUnits="userSpaceOnUse"><path fill="none" stroke="#000" stroke-width=".264583" d="m660.51416 543.1344 251.35417.00002-.00002 251.35414-80.30167 219.98844s-175.32881 0-179.60513-1.069c-4.27631-1.0691-281.16755-127.22033-281.16755-127.22033s-16.03616-121.87492-20.31248-152.87818c-4.27631-31.00327 31.00326-186.01959 33.14141-190.29591 2.13818-4.27631 155.01634-2.13815 155.01634-2.13815l123.59944 2.25898"/></clipPath><clipPath id="d" clipPathUnits="userSpaceOnUse"><path fill="none" stroke="#000" stroke-width=".264583" d="m502.53221 251.27606-251.35419.00002V-.07806941L350.48148-105.91682s118.66767-19.24341 141.1183-19.24341c22.45064 0 87.6644 12.82894 115.46044 21.38156 27.79604 8.552627 150.74003 79.111784 157.15446 96.2170333 6.41447 17.10525 21.38158 33.1414217 12.82895 71.6282337-8.5526 38.486813 3.20726 32.072344-26.72693 73.766393-29.9342 41.69404-59.86839 107.97688-88.7335 120.80582-28.86509 12.82894-124.01307-9.6217-124.01307-9.6217l-35.03792 2.25895"/></clipPath></defs><g fill-rule="evenodd" paint-order="markers fill stroke"><g clip-path="url(#a)" transform="translate(.00002035 .00002035)"><path fill="#fff" d="M0 0h502.70831v502.70831H0z"/><g fill="#00897b"><path d="m53.20921394 94.03064115 40.82142792-40.82142792L449.49909682 408.6776682l-40.82142792 40.82142792z"/><path d="m408.67768163 53.2092196 40.82142792 40.82142792L94.03065459 449.49910248l-40.82142792-40.82142792z"/></g></g><g clip-path="url(#b)" transform="translate(592.26933 -219.4026)"><path fill="#fff" d="M-592.26929 219.4026h502.70831v502.70831h-502.70831z"/><path fill="#e53935" d="m-539.06008278 313.43326906 40.82142792-40.82142792L-142.7701999 628.0802961l-40.82142792 40.82142792z"/><path fill="#e53935" d="m-183.59159105 272.61182629 40.82142792 40.82142792-355.46845496 355.46845496-40.82142792-40.82142792z"/></g><g clip-path="url(#c)" transform="translate(-660.51414 -291.78023)"><path fill="#00897b" d="M662.23867 543.13441V293.50467h499.25943v499.25949H662.23867Z"/><path fill="#004d40" d="m713.7234339 385.81086656 40.82142792-40.82142792 355.46845496 355.46845496-40.82142792 40.82142792z"/><path fill="#004d40" d="m1069.19188886 344.98947187 40.82142792 40.82142792-355.46845496 355.46845496-40.82142792-40.82142792z"/></g><g clip-path="url(#d)" transform="translate(.17615234 .07808976)"><path fill="#e53935" d="M1.54837723 251.27607967V1.6463412H500.8078514v499.2594854H1.54837724Z"/><g fill="#b71c1c" stroke-width="0"><path d="m53.03315884 93.95255564 40.82142792-40.82142792 355.46845496 355.46845496-40.82142792 40.82142792z"/><path d="M408.50162653 53.13113409 449.32305445 93.952562 93.85459949 449.42101697l-40.82142792-40.82142792z"/></g></g></g></svg>